<mxfile host="Electron" agent="Mozilla/5.0 (Windows NT 10.0; Win64; x64) AppleWebKit/537.36 (KHTML, like Gecko) draw.io/24.7.17 Chrome/128.0.6613.36 Electron/32.0.1 Safari/537.36" version="24.7.17">
  <diagram name="Page-1" id="rlmmUiKujoT-o2mzCqXM">
    <mxGraphModel dx="1105" dy="654" grid="1" gridSize="10" guides="1" tooltips="1" connect="1" arrows="1" fold="1" page="1" pageScale="1" pageWidth="850" pageHeight="1100" math="0" shadow="0">
      <root>
        <mxCell id="0" />
        <mxCell id="1" parent="0" />
        <mxCell id="shO3yWOXZOEibZEf79wV-1" value="Invoice generation Activity" style="swimlane;childLayout=stackLayout;resizeParent=1;resizeParentMax=0;startSize=20;html=1;" vertex="1" parent="1">
          <mxGeometry x="240.00000000000045" y="80" width="460" height="840" as="geometry" />
        </mxCell>
        <mxCell id="shO3yWOXZOEibZEf79wV-2" value="Cashier" style="swimlane;startSize=20;html=1;" vertex="1" parent="shO3yWOXZOEibZEf79wV-1">
          <mxGeometry y="20" width="260" height="820" as="geometry" />
        </mxCell>
        <mxCell id="shO3yWOXZOEibZEf79wV-6" value="" style="strokeWidth=2;html=1;shape=mxgraph.flowchart.start_2;whiteSpace=wrap;fillColor=#000000;" vertex="1" parent="shO3yWOXZOEibZEf79wV-2">
          <mxGeometry x="119.99999999999955" y="30" width="30" height="30" as="geometry" />
        </mxCell>
        <mxCell id="shO3yWOXZOEibZEf79wV-5" value="Cashier logs the items in the system." style="rounded=1;whiteSpace=wrap;html=1;" vertex="1" parent="shO3yWOXZOEibZEf79wV-2">
          <mxGeometry x="74.99999999999955" y="110" width="120" height="60" as="geometry" />
        </mxCell>
        <mxCell id="shO3yWOXZOEibZEf79wV-8" value="" style="endArrow=classic;html=1;rounded=0;exitX=0.5;exitY=1;exitDx=0;exitDy=0;exitPerimeter=0;entryX=0.5;entryY=0;entryDx=0;entryDy=0;" edge="1" parent="shO3yWOXZOEibZEf79wV-2" source="shO3yWOXZOEibZEf79wV-6" target="shO3yWOXZOEibZEf79wV-5">
          <mxGeometry width="50" height="50" relative="1" as="geometry">
            <mxPoint x="99.99999999999955" y="100" as="sourcePoint" />
            <mxPoint x="149.99999999999955" y="50" as="targetPoint" />
          </mxGeometry>
        </mxCell>
        <mxCell id="shO3yWOXZOEibZEf79wV-9" value="Proceed to payment." style="rounded=1;whiteSpace=wrap;html=1;" vertex="1" parent="shO3yWOXZOEibZEf79wV-2">
          <mxGeometry x="74.99999999999955" y="200" width="120" height="40" as="geometry" />
        </mxCell>
        <mxCell id="shO3yWOXZOEibZEf79wV-10" value="" style="endArrow=classic;html=1;rounded=0;exitX=0.5;exitY=1;exitDx=0;exitDy=0;entryX=0.5;entryY=0;entryDx=0;entryDy=0;" edge="1" parent="shO3yWOXZOEibZEf79wV-2" source="shO3yWOXZOEibZEf79wV-5" target="shO3yWOXZOEibZEf79wV-9">
          <mxGeometry width="50" height="50" relative="1" as="geometry">
            <mxPoint x="99.99999999999955" y="210" as="sourcePoint" />
            <mxPoint x="149.99999999999955" y="160" as="targetPoint" />
          </mxGeometry>
        </mxCell>
        <mxCell id="shO3yWOXZOEibZEf79wV-11" value="&lt;font style=&quot;font-size: 10px;&quot;&gt;Choose the&amp;nbsp;&lt;/font&gt;&lt;div&gt;&lt;font style=&quot;font-size: 10px;&quot;&gt;payment method&lt;/font&gt;&lt;/div&gt;" style="rhombus;whiteSpace=wrap;html=1;" vertex="1" parent="shO3yWOXZOEibZEf79wV-2">
          <mxGeometry x="85" y="280" width="100" height="80" as="geometry" />
        </mxCell>
        <mxCell id="shO3yWOXZOEibZEf79wV-12" value="" style="endArrow=classic;html=1;rounded=0;exitX=0.5;exitY=1;exitDx=0;exitDy=0;" edge="1" parent="shO3yWOXZOEibZEf79wV-2" source="shO3yWOXZOEibZEf79wV-9" target="shO3yWOXZOEibZEf79wV-11">
          <mxGeometry width="50" height="50" relative="1" as="geometry">
            <mxPoint x="159.99999999999955" y="340" as="sourcePoint" />
            <mxPoint x="209.99999999999955" y="290" as="targetPoint" />
          </mxGeometry>
        </mxCell>
        <mxCell id="shO3yWOXZOEibZEf79wV-13" value="card" style="rounded=1;whiteSpace=wrap;html=1;" vertex="1" parent="shO3yWOXZOEibZEf79wV-2">
          <mxGeometry x="14.999999999999545" y="380" width="70" height="40" as="geometry" />
        </mxCell>
        <mxCell id="shO3yWOXZOEibZEf79wV-25" value="Cash" style="rounded=1;whiteSpace=wrap;html=1;" vertex="1" parent="shO3yWOXZOEibZEf79wV-2">
          <mxGeometry x="179.99999999999955" y="380" width="70" height="40" as="geometry" />
        </mxCell>
        <mxCell id="shO3yWOXZOEibZEf79wV-26" value="" style="endArrow=classic;html=1;rounded=0;exitX=1;exitY=0.5;exitDx=0;exitDy=0;entryX=0.5;entryY=0;entryDx=0;entryDy=0;" edge="1" parent="shO3yWOXZOEibZEf79wV-2" source="shO3yWOXZOEibZEf79wV-11" target="shO3yWOXZOEibZEf79wV-25">
          <mxGeometry width="50" height="50" relative="1" as="geometry">
            <mxPoint x="159.99999999999955" y="290" as="sourcePoint" />
            <mxPoint x="209.99999999999955" y="240" as="targetPoint" />
            <Array as="points">
              <mxPoint x="214.99999999999955" y="320" />
            </Array>
          </mxGeometry>
        </mxCell>
        <mxCell id="shO3yWOXZOEibZEf79wV-27" value="" style="endArrow=classic;html=1;rounded=0;exitX=0;exitY=0.5;exitDx=0;exitDy=0;entryX=0.5;entryY=0;entryDx=0;entryDy=0;" edge="1" parent="shO3yWOXZOEibZEf79wV-2" source="shO3yWOXZOEibZEf79wV-11" target="shO3yWOXZOEibZEf79wV-13">
          <mxGeometry width="50" height="50" relative="1" as="geometry">
            <mxPoint x="159.99999999999955" y="290" as="sourcePoint" />
            <mxPoint x="209.99999999999955" y="240" as="targetPoint" />
            <Array as="points">
              <mxPoint x="49.999999999999545" y="320" />
            </Array>
          </mxGeometry>
        </mxCell>
        <mxCell id="shO3yWOXZOEibZEf79wV-30" value="" style="line;strokeWidth=6;rotatable=0;dashed=0;labelPosition=right;align=left;verticalAlign=middle;spacingTop=0;spacingLeft=6;points=[];portConstraint=eastwest;spacing=3;" vertex="1" parent="shO3yWOXZOEibZEf79wV-2">
          <mxGeometry x="30" y="470" width="200" height="10" as="geometry" />
        </mxCell>
        <mxCell id="shO3yWOXZOEibZEf79wV-29" value="" style="endArrow=classic;html=1;rounded=0;exitX=0.5;exitY=1;exitDx=0;exitDy=0;entryX=0.097;entryY=0.329;entryDx=0;entryDy=0;entryPerimeter=0;" edge="1" parent="shO3yWOXZOEibZEf79wV-2" source="shO3yWOXZOEibZEf79wV-13" target="shO3yWOXZOEibZEf79wV-30">
          <mxGeometry width="50" height="50" relative="1" as="geometry">
            <mxPoint x="159.99999999999955" y="410" as="sourcePoint" />
            <mxPoint x="49.999999999999545" y="460" as="targetPoint" />
          </mxGeometry>
        </mxCell>
        <mxCell id="shO3yWOXZOEibZEf79wV-31" value="" style="endArrow=classic;html=1;rounded=0;exitX=0.5;exitY=1;exitDx=0;exitDy=0;entryX=0.92;entryY=0.386;entryDx=0;entryDy=0;entryPerimeter=0;" edge="1" parent="shO3yWOXZOEibZEf79wV-2" source="shO3yWOXZOEibZEf79wV-25" target="shO3yWOXZOEibZEf79wV-30">
          <mxGeometry width="50" height="50" relative="1" as="geometry">
            <mxPoint x="139.99999999999955" y="430" as="sourcePoint" />
            <mxPoint x="189.99999999999955" y="380" as="targetPoint" />
          </mxGeometry>
        </mxCell>
        <mxCell id="shO3yWOXZOEibZEf79wV-34" value="verify Invoice" style="rounded=1;whiteSpace=wrap;html=1;" vertex="1" parent="shO3yWOXZOEibZEf79wV-2">
          <mxGeometry x="85" y="600" width="120" height="50" as="geometry" />
        </mxCell>
        <mxCell id="shO3yWOXZOEibZEf79wV-39" value="card" style="text;html=1;align=center;verticalAlign=middle;whiteSpace=wrap;rounded=0;" vertex="1" parent="shO3yWOXZOEibZEf79wV-2">
          <mxGeometry x="29.999999999999545" y="290" width="60" height="30" as="geometry" />
        </mxCell>
        <mxCell id="shO3yWOXZOEibZEf79wV-40" value="cash" style="text;html=1;align=center;verticalAlign=middle;whiteSpace=wrap;rounded=0;" vertex="1" parent="shO3yWOXZOEibZEf79wV-2">
          <mxGeometry x="184.99999999999955" y="290" width="60" height="30" as="geometry" />
        </mxCell>
        <mxCell id="shO3yWOXZOEibZEf79wV-33" value="" style="endArrow=classic;html=1;rounded=0;exitX=0.498;exitY=0.9;exitDx=0;exitDy=0;exitPerimeter=0;entryX=0;entryY=0.5;entryDx=0;entryDy=0;" edge="1" parent="shO3yWOXZOEibZEf79wV-1" source="shO3yWOXZOEibZEf79wV-30" target="shO3yWOXZOEibZEf79wV-32">
          <mxGeometry width="50" height="50" relative="1" as="geometry">
            <mxPoint x="189.99999999999955" y="550" as="sourcePoint" />
            <mxPoint x="289.99999999999955" y="550" as="targetPoint" />
            <Array as="points">
              <mxPoint x="129.99999999999955" y="545" />
            </Array>
          </mxGeometry>
        </mxCell>
        <mxCell id="shO3yWOXZOEibZEf79wV-36" value="" style="endArrow=classic;html=1;rounded=0;exitX=0.443;exitY=1.039;exitDx=0;exitDy=0;exitPerimeter=0;entryX=0.5;entryY=0;entryDx=0;entryDy=0;" edge="1" parent="shO3yWOXZOEibZEf79wV-1" source="shO3yWOXZOEibZEf79wV-32" target="shO3yWOXZOEibZEf79wV-34">
          <mxGeometry width="50" height="50" relative="1" as="geometry">
            <mxPoint x="189.99999999999955" y="660" as="sourcePoint" />
            <mxPoint x="239.99999999999955" y="610" as="targetPoint" />
            <Array as="points">
              <mxPoint x="362.99999999999955" y="600" />
              <mxPoint x="144.99999999999955" y="600" />
            </Array>
          </mxGeometry>
        </mxCell>
        <mxCell id="shO3yWOXZOEibZEf79wV-37" value="" style="endArrow=classic;html=1;rounded=0;exitX=1;exitY=0.5;exitDx=0;exitDy=0;entryX=0.5;entryY=0;entryDx=0;entryDy=0;" edge="1" parent="shO3yWOXZOEibZEf79wV-1" source="shO3yWOXZOEibZEf79wV-34" target="shO3yWOXZOEibZEf79wV-35">
          <mxGeometry width="50" height="50" relative="1" as="geometry">
            <mxPoint x="189.99999999999955" y="660" as="sourcePoint" />
            <mxPoint x="239.99999999999955" y="610" as="targetPoint" />
            <Array as="points">
              <mxPoint x="369.99999999999955" y="645" />
            </Array>
          </mxGeometry>
        </mxCell>
        <mxCell id="shO3yWOXZOEibZEf79wV-3" value="System" style="swimlane;startSize=20;html=1;" vertex="1" parent="shO3yWOXZOEibZEf79wV-1">
          <mxGeometry x="260" y="20" width="200" height="820" as="geometry" />
        </mxCell>
        <mxCell id="shO3yWOXZOEibZEf79wV-32" value="generate invoice" style="rounded=1;whiteSpace=wrap;html=1;" vertex="1" parent="shO3yWOXZOEibZEf79wV-3">
          <mxGeometry x="50" y="500" width="120" height="50" as="geometry" />
        </mxCell>
        <mxCell id="shO3yWOXZOEibZEf79wV-35" value="print invoice" style="rounded=1;whiteSpace=wrap;html=1;" vertex="1" parent="shO3yWOXZOEibZEf79wV-3">
          <mxGeometry x="50" y="670" width="120" height="50" as="geometry" />
        </mxCell>
        <mxCell id="shO3yWOXZOEibZEf79wV-7" value="" style="ellipse;html=1;shape=endState;fillColor=#000000;strokeColor=#000000;" vertex="1" parent="shO3yWOXZOEibZEf79wV-3">
          <mxGeometry x="95" y="760" width="30" height="30" as="geometry" />
        </mxCell>
        <mxCell id="shO3yWOXZOEibZEf79wV-38" value="" style="endArrow=classic;html=1;rounded=0;exitX=0.5;exitY=1;exitDx=0;exitDy=0;entryX=0.5;entryY=0;entryDx=0;entryDy=0;" edge="1" parent="shO3yWOXZOEibZEf79wV-3" source="shO3yWOXZOEibZEf79wV-35" target="shO3yWOXZOEibZEf79wV-7">
          <mxGeometry width="50" height="50" relative="1" as="geometry">
            <mxPoint x="-70.00000000000045" y="640" as="sourcePoint" />
            <mxPoint x="-20.000000000000455" y="590" as="targetPoint" />
          </mxGeometry>
        </mxCell>
      </root>
    </mxGraphModel>
  </diagram>
</mxfile>
